<svg width="92" height="93" viewBox="0 0 92 93" fill="none" xmlns="http://www.w3.org/2000/svg">
<path d="M46 93C71.4051 93 92 72.1812 92 46.5C92 20.8188 71.4051 0 46 0C20.5949 0 0 20.8188 0 46.5C0 72.1812 20.5949 93 46 93Z" fill="#0032A0"/>
<path d="M25.024 38.3806H21.081V46.8398C17.6264 43.7082 14.1792 40.5765 10.6401 37.4506V54.6195H14.5829V46.1602C17.8725 49.1116 21.4041 52.4236 25.0258 55.5495L25.024 38.3806ZM33.7677 54.6137H29.8249V38.3806H33.7677V54.6137ZM43.9872 55.5437C41.1935 50.2295 38.3958 44.1233 35.6021 38.3748H40.0406L43.9835 47.1696L47.7798 38.3744H52.1283C49.4209 44.1386 46.706 50.2215 43.9929 55.5491L43.9872 55.5437ZM64.597 41.9285H57.9243V44.7293H64.6046V48.2707H57.9243V51.0551H64.6046V54.5968H53.9777V38.3692H64.6046L64.597 41.9285ZM74.6157 37.4513C71.9028 42.8639 69.1897 48.7006 66.4766 54.6202H70.5958L71.4164 52.6748H77.8395L78.6637 54.6202H82.9313C80.1189 48.6998 77.3251 42.78 74.6157 37.4506V37.4513ZM72.571 49.6285L74.6157 44.9066L76.5909 49.6285H72.571Z" fill="white"/>
</svg>
