<svg width="73" height="19" viewBox="0 0 73 19" fill="none" xmlns="http://www.w3.org/2000/svg">
<path d="M15.024 1.38056H11.081V9.83983C7.62644 6.70815 4.1792 3.57647 0.640148 0.450562V17.6195H4.5829V9.16019C7.87245 12.1116 11.4041 15.4236 15.0258 18.5495L15.024 1.38056ZM23.7677 17.6137H19.8249V1.38056H23.7677V17.6137ZM33.9872 18.5437C31.1935 13.2295 28.3958 7.1233 25.6021 1.37479H30.0406L33.9835 10.1696L37.7798 1.37442H42.1283C39.4209 7.13856 36.706 13.2215 33.9929 18.5491L33.9872 18.5437ZM54.597 4.92851H47.9243V7.72929H54.6046V11.2707H47.9243V14.0551H54.6046V17.5968H43.9777V1.36921H54.6046L54.597 4.92851ZM64.6157 0.451305C61.9028 5.8639 59.1897 11.7006 56.4766 17.6202H60.5958L61.4164 15.6748H67.8395L68.6637 17.6202H72.9313C70.1189 11.6998 67.3251 5.78001 64.6157 0.450562V0.451305ZM62.571 12.6285L64.6157 7.90655L66.5909 12.6285H62.571Z" fill="white"/>
</svg>
