<svg width="265" height="41" viewBox="0 0 265 41" fill="none" xmlns="http://www.w3.org/2000/svg">
<path d="M72.61 37.9468C71.8592 37.9468 71.1083 37.9468 70.4458 37.9468C70.1808 37.9468 70.9317 37.9468 70.6225 37.9468C64.7483 37.8596 64.2625 37.2053 64.1742 31.8404C64.0858 30.75 64.0858 29.5287 64.0858 28.4383V13.8702C64.0858 12.1255 64.1742 6.28085 64.5717 5.19042C65.2342 3.62021 66.6475 3.44575 69.5183 3.14043V1.09043C66.4267 1.17766 63.335 1.26489 60.2433 1.26489C57.4608 1.26489 54.6342 1.17766 51.6308 1.09043V3.22766C55.2967 3.57659 56.1358 3.96915 56.1358 8.02553C56.2242 9.50851 56.2242 10.9915 56.2242 12.4745V28.4383C56.2242 30.6628 56.1358 33.3234 56.0475 34.7192C55.8708 37.2053 54.8108 37.7723 51.675 37.9468V40.084H83.0775C84.5792 34.7191 84.9325 33.367 86.8317 27.8277L84.9767 27.0862C79.235 37.1181 77.4683 37.8596 72.61 37.9468Z" fill="#00192D"/>
<path d="M153.568 18.7553C151.801 17.8394 149.813 17.1851 147.384 16.5308C142.614 15.0479 137.579 13.5649 137.579 8.94149C137.579 5.8883 140.273 2.48618 144.778 2.48618C148.135 2.48618 151.138 4.31808 153.17 6.71702C154.848 8.76702 155.423 10.5989 156.262 13.434L157.94 12.9543L157.675 1.22127L155.158 3.62021C151.492 0.872335 147.296 0.218085 144.425 0.218085C137.049 0.218085 130.777 4.27447 130.777 11.5585C130.777 19.1479 137.403 21.634 140.98 22.7245C142.658 23.3787 144.513 23.8149 146.236 24.4692C148.312 25.2106 152.949 26.9553 152.949 31.4043C152.949 35.5479 148.93 38.7755 144.337 38.7755C137.888 38.7755 133.869 32.9745 131.44 26.6064L129.762 26.9553C129.85 32.6691 129.762 34.8936 129.938 39.9532L133.472 37.9032C135.15 38.9064 138.816 40.9564 144.602 40.9564C153.656 40.9564 159.751 35.417 159.751 28.7C159.707 24.033 156.924 20.6308 153.568 18.7553Z" fill="#00192D"/>
<path d="M243.667 0.21809C230.285 0.130856 222.732 9.72659 222.732 20.4128C222.732 32.8 232.184 41 244.242 41C255.283 41 265 33.9777 265 20.5C265 8.72341 256.211 0.305324 243.667 0.21809ZM252.28 34.4574C250.337 36.9436 247.51 38.7755 244.242 38.7755C241.901 38.7755 238.544 37.7723 235.85 34.1521C232.758 30.0085 232.007 24.7309 232.007 19.7585C232.007 14.7862 232.758 9.50851 236.292 5.80106C237.617 4.40532 240.134 2.39894 243.579 2.39894C246.848 2.39894 249.851 4.23086 251.794 6.84788C254.974 10.9915 255.548 17.4468 255.548 21.416C255.637 26.0394 255.062 30.75 252.28 34.4574Z" fill="#00192D"/>
<path d="M196.762 37.6851C187.134 37.6851 182.276 28.2638 182.276 19.6713C182.276 9.59575 188.15 2.48618 195.658 2.48618C200.031 2.48618 203.034 4.97234 204.359 6.28085C207.053 9.02872 208.113 12.3 208.864 14.4809L210.719 14.1319L210.543 2.3117L207.76 4.71063C205.331 2.96595 201.488 0 194.113 0C180.112 0 173.266 10.3372 173.266 20.8489C173.266 32.1894 181.393 40.8692 193.848 40.8692C205.331 40.8692 209.748 33.934 211.514 31.1862L209.659 29.9649C207.318 33.0617 203.917 37.6851 196.762 37.6851Z" fill="#00192D"/>
<path d="M114.745 37.9468C111.653 37.7723 110.549 37.2053 110.24 34.8064C110.152 33.716 110.063 29.267 110.063 27.8713V12.1691C110.063 3.88191 110.063 3.57659 114.745 3.22766V1.09043C111.963 1.17766 108.959 1.17766 106.044 1.17766C103.262 1.17766 101.009 1.09043 97.52 1.09043V3.22766C102.202 3.88191 102.202 4.05638 102.202 12.1691V32.9309C102.113 36.9872 101.363 37.467 97.52 37.9032V40.0404C100.523 39.9532 102.952 39.866 105.647 39.866C108.65 39.866 111.609 39.9532 114.701 40.0404C114.745 39.9968 114.745 37.9468 114.745 37.9468Z" fill="#00192D"/>
<path d="M28.3108 1.13405V3.27128C30.74 3.27128 33.5667 3.44574 33.5667 6.23723C33.5667 7.24042 32.9042 8.9851 32.33 10.3808L23.9383 30.8808L15.105 10.9915C13.6917 7.58937 13.4267 6.84787 13.4267 5.71383C13.4267 3.48936 15.5025 3.31489 18.6825 3.22766V1.09043C15.4142 1.17766 12.2342 1.17766 9.05417 1.17766C6.13917 1.17766 3.445 1.09043 0 1.09043V3.22766C3.93083 3.79468 4.01917 4.71064 7.2875 12.0819L19.61 39.9532H22.3925L34.185 12.4309C37.4533 4.66702 38.2042 3.66383 42.0467 3.09681V1.04681C39.7942 1.13404 37.4533 1.13405 35.1125 1.13405C32.86 1.22128 30.5633 1.13405 28.3108 1.13405Z" fill="#00192D"/>
</svg>
